<?xml version="1.0" encoding="UTF-8"?>
<!DOCTYPE svg PUBLIC "-//W3C//DTD SVG 1.1//EN" "http://www.w3.org/Graphics/SVG/1.1/DTD/svg11.dtd">
<svg xmlns="http://www.w3.org/2000/svg" version="1.1" width="512px" height="512px" style="shape-rendering:geometricPrecision; text-rendering:geometricPrecision; image-rendering:optimizeQuality; fill-rule:evenodd; clip-rule:evenodd" xmlns:xlink="http://www.w3.org/1999/xlink">
<g><path style="opacity:0.956"  d="M 232.5,-0.5 C 247.833,-0.5 263.167,-0.5 278.5,-0.5C 368.144,10.3879 435.644,54.7213 481,132.5C 497.695,163.971 507.861,197.304 511.5,232.5C 511.5,247.833 511.5,263.167 511.5,278.5C 500.612,368.144 456.279,435.644 378.5,481C 347.029,497.695 313.696,507.861 278.5,511.5C 263.167,511.5 247.833,511.5 232.5,511.5C 142.856,500.612 75.3562,456.279 30,378.5C 13.3053,347.029 3.1386,313.696 -0.5,278.5C -0.5,263.167 -0.5,247.833 -0.5,232.5C 10.3875,142.857 54.7208,75.3573 132.5,30C 163.971,13.3053 197.304,3.1386 232.5,-0.5 Z M 242.5,25.5 C 332.171,24.0787 401.671,60.412 451,134.5C 488.573,198.367 495.24,265.367 471,335.5C 437.192,418.001 376.359,467.168 288.5,483C 197.032,492.666 123.532,461.166 68,388.5C 23.5089,322.243 14.1756,251.243 40,175.5C 69.3857,102.447 121.886,54.9475 197.5,33C 212.463,29.395 227.463,26.895 242.5,25.5 Z"/></g>
<g><path style="opacity:0.978"  d="M 252.5,152.5 C 259.906,151.782 265.073,154.782 268,161.5C 268.5,188.498 268.667,215.498 268.5,242.5C 295.502,242.333 322.502,242.5 349.5,243C 358.276,247.662 360.442,254.496 356,263.5C 354.269,265.617 352.102,267.117 349.5,268C 322.502,268.5 295.502,268.667 268.5,268.5C 268.667,295.502 268.5,322.502 268,349.5C 263.338,358.276 256.504,360.442 247.5,356C 245.383,354.269 243.883,352.102 243,349.5C 242.5,322.502 242.333,295.502 242.5,268.5C 215.498,268.667 188.498,268.5 161.5,268C 152.724,263.338 150.558,256.504 155,247.5C 156.731,245.383 158.898,243.883 161.5,243C 188.498,242.5 215.498,242.333 242.5,242.5C 242.333,215.498 242.5,188.498 243,161.5C 244.775,156.888 247.942,153.888 252.5,152.5 Z"/></g>
</svg>
