<?xml version="1.0" encoding="UTF-8"?>
<!DOCTYPE svg PUBLIC "-//W3C//DTD SVG 1.1//EN" "http://www.w3.org/Graphics/SVG/1.1/DTD/svg11.dtd">
<svg xmlns="http://www.w3.org/2000/svg" version="1.1" width="512px" height="512px" style="shape-rendering:geometricPrecision; text-rendering:geometricPrecision; image-rendering:optimizeQuality; fill-rule:evenodd; clip-rule:evenodd" xmlns:xlink="http://www.w3.org/1999/xlink">
<g><path style="opacity:0.969" fill="#000000" d="M 232.5,-0.5 C 247.833,-0.5 263.167,-0.5 278.5,-0.5C 358.893,9.09801 422.393,46.7647 469,112.5C 492.821,149.131 506.987,189.131 511.5,232.5C 511.5,247.833 511.5,263.167 511.5,278.5C 501.902,358.893 464.235,422.393 398.5,469C 361.869,492.821 321.869,506.987 278.5,511.5C 263.167,511.5 247.833,511.5 232.5,511.5C 152.107,501.902 88.6066,464.235 42,398.5C 18.1791,361.868 4.01239,321.868 -0.5,278.5C -0.5,263.167 -0.5,247.833 -0.5,232.5C 9.09756,152.108 46.7642,88.6077 112.5,42C 149.131,18.1794 189.131,4.01272 232.5,-0.5 Z M 244.5,35.5 C 330.893,34.935 397.393,70.6017 444,142.5C 486,217.833 486,293.167 444,368.5C 399.981,436.611 337.148,472.277 255.5,475.5C 173.852,472.277 111.019,436.611 67,368.5C 25,293.167 25,217.833 67,142.5C 108.372,77.6865 167.538,42.0198 244.5,35.5 Z"/></g>
<g><path style="opacity:0.954" fill="#000000" d="M 248.5,133.5 C 262.432,131.221 273.266,135.888 281,147.5C 285.785,168.543 277.285,180.209 255.5,182.5C 232.179,179.81 224.013,167.476 231,145.5C 235.429,139.375 241.262,135.375 248.5,133.5 Z"/></g>
<g><path style="opacity:0.979" fill="#000000" d="M 247.5,212.5 C 256.443,211.766 265.109,212.933 273.5,216C 277.817,218.315 280.65,221.815 282,226.5C 282.667,270.833 282.667,315.167 282,359.5C 278.43,367.384 272.264,371.884 263.5,373C 254.043,374.516 245.043,373.183 236.5,369C 233.96,366.795 231.793,364.295 230,361.5C 229.333,315.5 229.333,269.5 230,223.5C 234.205,217.163 240.038,213.497 247.5,212.5 Z"/></g>
</svg>
