<?xml version="1.0" encoding="UTF-8"?>
<!DOCTYPE svg PUBLIC "-//W3C//DTD SVG 1.1//EN" "http://www.w3.org/Graphics/SVG/1.1/DTD/svg11.dtd">
<svg xmlns="http://www.w3.org/2000/svg" version="1.1" width="512px" height="512px" style="shape-rendering:geometricPrecision; text-rendering:geometricPrecision; image-rendering:optimizeQuality; fill-rule:evenodd; clip-rule:evenodd" xmlns:xlink="http://www.w3.org/1999/xlink">
<g><path style="opacity:0.987" fill="#000000" d="M 57.5,84.5 C 153.834,84.3333 250.167,84.5 346.5,85C 360.269,90.3727 365.103,100.206 361,114.5C 358.518,120.828 354.018,124.994 347.5,127C 250.5,127.667 153.5,127.667 56.5,127C 43.9468,121.349 39.4468,111.849 43,98.5C 45.774,91.5569 50.6073,86.8903 57.5,84.5 Z"/></g>
<g><path style="opacity:0.967" fill="#000000" d="M 59.5,233.5 C 190.167,233.333 320.834,233.5 451.5,234C 466.198,238.553 471.698,248.386 468,263.5C 464.605,270.561 459.105,275.061 451.5,277C 320.833,277.667 190.167,277.667 59.5,277C 44.8025,272.447 39.3025,262.614 43,247.5C 46.2825,240.124 51.7825,235.457 59.5,233.5 Z"/></g>
<g><path style="opacity:0.985" fill="#000000" d="M 56.5,383.5 C 125.167,383.333 193.834,383.5 262.5,384C 277.473,391.924 280.973,403.424 273,418.5C 269.731,421.883 265.897,424.383 261.5,426C 193.5,426.667 125.5,426.667 57.5,426C 42.3004,419.07 38.1338,407.904 45,392.5C 48.1607,388.491 51.994,385.491 56.5,383.5 Z"/></g>
</svg>
