<?xml version="1.0" encoding="UTF-8"?>
<!DOCTYPE svg PUBLIC "-//W3C//DTD SVG 1.1//EN" "http://www.w3.org/Graphics/SVG/1.1/DTD/svg11.dtd">
<svg xmlns="http://www.w3.org/2000/svg" version="1.1" width="512px" height="512px" style="shape-rendering:geometricPrecision; text-rendering:geometricPrecision; image-rendering:optimizeQuality; fill-rule:evenodd; clip-rule:evenodd" xmlns:xlink="http://www.w3.org/1999/xlink">
<g><path style="opacity:0.974" fill="#000000" d="M 204.5,-0.5 C 238.5,-0.5 272.5,-0.5 306.5,-0.5C 322.484,3.98523 332.651,14.3186 337,30.5C 338.904,42.5941 341.238,54.5941 344,66.5C 351.036,80.1025 362.203,85.9358 377.5,84C 388.577,80.1968 399.577,76.1968 410.5,72C 431.251,67.5796 447.084,74.4129 458,92.5C 471.747,116.997 485.747,141.33 500,165.5C 506.266,179.984 505.266,193.984 497,207.5C 486.926,217.579 476.259,226.912 465,235.5C 454.362,250.346 455.196,264.512 467.5,278C 477.949,285.782 487.782,294.282 497,303.5C 505.266,317.016 506.266,331.016 500,345.5C 485.747,369.67 471.747,394.003 458,418.5C 447.084,436.587 431.251,443.42 410.5,439C 399.577,434.803 388.577,430.803 377.5,427C 362.203,425.064 351.036,430.897 344,444.5C 341.238,456.406 338.904,468.406 337,480.5C 332.651,496.681 322.484,507.015 306.5,511.5C 272.5,511.5 238.5,511.5 204.5,511.5C 188.516,507.015 178.349,496.681 174,480.5C 172.096,468.406 169.762,456.406 167,444.5C 159.964,430.897 148.797,425.064 133.5,427C 122.423,430.803 111.423,434.803 100.5,439C 79.7493,443.42 63.9159,436.587 53,418.5C 39.2527,394.003 25.2527,369.67 11,345.5C 4.54678,330.994 5.54678,316.994 14,303.5C 24.049,293.45 34.7156,284.117 46,275.5C 56.6378,260.654 55.8044,246.488 43.5,233C 33.0511,225.218 23.2178,216.718 14,207.5C 5.54678,194.006 4.54678,180.006 11,165.5C 25.2527,141.33 39.2527,116.997 53,92.5C 63.9159,74.4129 79.7493,67.5796 100.5,72C 111.423,76.1968 122.423,80.1968 133.5,84C 148.797,85.9358 159.964,80.1025 167,66.5C 169.762,54.5941 172.096,42.5941 174,30.5C 178.349,14.3186 188.516,3.98523 204.5,-0.5 Z M 213.5,39.5 C 241.5,39.5 269.5,39.5 297.5,39.5C 298.828,54.1374 301.662,68.4708 306,82.5C 323.646,117.571 351.813,131.071 390.5,123C 400.839,119.555 411.005,115.721 421,111.5C 435.033,135.371 448.866,159.371 462.5,183.5C 455.671,189.492 448.671,195.325 441.5,201C 419.288,221.31 411.788,246.143 419,275.5C 423.291,289.118 430.791,300.618 441.5,310C 448.333,315.5 455.167,321 462,326.5C 449.173,351.137 435.507,375.471 421,399.5C 405.227,391.575 388.56,386.908 371,385.5C 334.573,387.592 311.573,406.259 302,441.5C 300.173,451.462 298.673,461.462 297.5,471.5C 269.5,471.5 241.5,471.5 213.5,471.5C 212.172,456.863 209.338,442.529 205,428.5C 187.354,393.429 159.187,379.929 120.5,388C 110.161,391.445 99.9945,395.279 90,399.5C 75.9669,375.629 62.1336,351.629 48.5,327.5C 55.3291,321.508 62.3291,315.675 69.5,310C 91.7124,289.69 99.2124,264.857 92,235.5C 87.709,221.882 80.209,210.382 69.5,201C 62.6667,195.5 55.8333,190 49,184.5C 61.8266,159.863 75.4932,135.529 90,111.5C 105.773,119.425 122.44,124.092 140,125.5C 176.4,123.441 199.4,104.774 209,69.5C 210.827,59.538 212.327,49.538 213.5,39.5 Z M 246.5,197.5 C 282.493,195.902 304.66,212.569 313,247.5C 314.717,282.563 298.55,304.396 264.5,313C 229.056,315.029 206.889,298.862 198,264.5C 196.085,228.973 212.252,206.639 246.5,197.5 Z"/></g>
<g><path style="opacity:0.971" fill="#000000" d="M 243.5,156.5 C 286.471,153.734 319.304,170.4 342,206.5C 356.691,235.072 358.357,264.405 347,294.5C 330.756,328.55 303.923,348.383 266.5,354C 223.9,356.951 191.4,340.451 169,304.5C 154.309,275.928 152.643,246.595 164,216.5C 180.215,182.815 206.715,162.815 243.5,156.5 Z M 246.5,197.5 C 212.252,206.639 196.085,228.973 198,264.5C 206.889,298.862 229.056,315.029 264.5,313C 298.55,304.396 314.717,282.563 313,247.5C 304.66,212.569 282.493,195.902 246.5,197.5 Z"/></g>
</svg>
