<?xml version="1.0" encoding="UTF-8"?>
<!DOCTYPE svg PUBLIC "-//W3C//DTD SVG 1.1//EN" "http://www.w3.org/Graphics/SVG/1.1/DTD/svg11.dtd">
<svg xmlns="http://www.w3.org/2000/svg" version="1.1" width="512px" height="512px" style="shape-rendering:geometricPrecision; text-rendering:geometricPrecision; image-rendering:optimizeQuality; fill-rule:evenodd; clip-rule:evenodd" xmlns:xlink="http://www.w3.org/1999/xlink">
<g><path style="opacity:0.965" fill="#000000" d="M 511.5,249.5 C 511.5,253.5 511.5,257.5 511.5,261.5C 468.614,320.221 414.614,365.721 349.5,398C 297.847,421.457 244.847,425.124 190.5,409C 151.824,395.916 116.824,376.582 85.5,351C 52.8165,324.821 24.1498,294.987 -0.5,261.5C -0.5,257.5 -0.5,253.5 -0.5,249.5C 42.3856,190.779 96.3856,145.279 161.5,113C 213.153,89.5427 266.153,85.876 320.5,102C 359.176,115.084 394.176,134.418 425.5,160C 458.184,186.179 486.85,216.013 511.5,249.5 Z M 244.5,126.5 C 286.137,126.076 324.804,136.576 360.5,158C 403.162,183.814 440.162,216.314 471.5,255.5C 433.154,304.03 386.154,341.53 330.5,368C 282.439,389.17 234.105,389.836 185.5,370C 151.333,355.135 120.333,335.468 92.5,311C 73.2472,293.916 55.5805,275.416 39.5,255.5C 73.6797,213.138 114.346,178.638 161.5,152C 187.651,138.113 215.317,129.613 244.5,126.5 Z M 247.5,188.5 C 280.718,187.181 304.218,201.515 318,231.5C 328.165,264.67 319.332,291.503 291.5,312C 264.061,327.306 237.728,325.639 212.5,307C 186.178,281.234 181.678,252.068 199,219.5C 210.745,202.213 226.912,191.879 247.5,188.5 Z"/></g>
<g><path style="opacity:0.967" fill="#000000" d="M 249.5,153.5 C 296.76,153.652 330.26,174.985 350,217.5C 364.372,258.619 357.039,295.286 328,327.5C 295.751,356.962 258.918,364.462 217.5,350C 168.507,326.525 148.007,287.692 156,233.5C 169.53,186.132 200.697,159.465 249.5,153.5 Z M 247.5,188.5 C 226.912,191.879 210.745,202.213 199,219.5C 181.678,252.068 186.178,281.234 212.5,307C 237.728,325.639 264.061,327.306 291.5,312C 319.332,291.503 328.165,264.67 318,231.5C 304.218,201.515 280.718,187.181 247.5,188.5 Z"/></g>
</svg>
